<?xml version="1.0" encoding="utf-8"?>
<!-- Generator: Adobe Illustrator 23.0.1, SVG Export Plug-In . SVG Version: 6.00 Build 0)  -->
<svg version="1.1" id="Layer_1" xmlns="http://www.w3.org/2000/svg" xmlns:xlink="http://www.w3.org/1999/xlink" x="0px" y="0px"
	 viewBox="0 0 910.2 278.5" style="enable-background:new 0 0 910.2 278.5;" xml:space="preserve">
<style type="text/css">
	.st0{clip-path:url(#SVGID_2_);}
	.st1{fill:#00D645;}
	.st2{fill:#1CD53D;}
	.st3{fill:#39D336;}
	.st4{fill:#55D22E;}
	.st5{fill:#71D026;}
	.st6{fill:#8ECF1F;}
	.st7{fill:#AACD17;}
	.st8{fill:#C6CC0F;}
	.st9{fill:#E3CA08;}
	.st10{fill:#FFC900;}
	.st11{fill:#FFB014;}
	.st12{fill:#FF9728;}
	.st13{fill:#FF7E3C;}
	.st14{fill:#FF6551;}
	.st15{fill:#FF4B65;}
	.st16{fill:#FF3279;}
	.st17{fill:#FF198D;}
	.st18{fill:#FF00A1;}
	.st19{fill:#3399CC;}
	.st20{fill:#66CCFF;}
	.st21{fill:#3399FF;}
	.st22{fill:#0099FF;}
	.st23{fill:#006699;}
	.st24{fill:#3366FF;}
	.st25{fill:#FFCC33;}
	.st26{fill:#FF9200;}
	.st27{fill:#D05900;}
	.st28{fill:#C300E7;}
	.st29{fill:#EB9BFF;}
	.st30{fill:#B9539A;}
	.st31{fill:#33CCFF;}
	.st32{fill:#FFD908;}
	.st33{fill:#FFCB00;}
	.st34{fill:#F15A24;}
	.st35{fill:#FF17CC;}
	.st36{fill:#6666FF;}
	.st37{fill:#0000FF;}
	.st38{fill:#CC9933;}
	.st39{fill:#ED1C24;}
	.st40{fill:#E2CD00;}
	.st41{fill:#FFFFFF;}
</style>
<g>
	<g>
		<g>
			<g>
				<g>
					<g>
						<defs>
							<path id="SVGID_1_" d="M127,134.4c-3.5,28.5-20.6,50.4-61.4,50.4C20.1,184.8,3,157.3,3,117.3c0-44.5,25.1-68.9,64.8-68.9
								c47.8,0,58.7,32,59.3,51.1H82.8c-0.5-11.3-4-20.3-15.2-20.3c-12.6,0-17.8,11.4-17.8,36.9c0,28.9,6.1,38.4,17.2,38.4
								c11.4,0,14.1-8.7,16-20L127,134.4L127,134.4L127,134.4z M268.8,115c0,36.9-18,70-67,70c-49.2,0-65.8-33.9-65.8-69.3
								c0-29,15.4-67.3,67.4-67.3C253.5,48.3,268.8,83.9,268.8,115z M182.6,115.4c0,27,6.4,38.3,20.2,38.3
								c12.8,0,19.1-11.7,19.1-38.1C221.9,90.3,216,80,202,80C189.5,79.9,182.6,90.7,182.6,115.4z M283.2,182.2V1.7h45.7v180.5
								H283.2z M476.9,115c0,36.9-18,70-67,70c-49.2,0-65.8-33.9-65.8-69.3c0-29,15.4-67.3,67.4-67.3
								C461.8,48.3,476.9,83.9,476.9,115z M390.9,115.4c0,27,6.4,38.3,20.2,38.3c12.8,0,19.1-11.7,19.1-38.1
								c0-25.3-5.9-35.6-19.9-35.6C397.6,79.9,390.9,90.7,390.9,115.4z M490.8,95.7c0-22,0-36.7-0.4-44.5H535
								c0.6,5.1,1,16.1,0.8,23.5c4.3-12.6,15.8-26,38.4-26v43.2c-27.7-0.6-37.4,7.3-37.4,34.9v55.3h-46V95.7L490.8,95.7z"/>
						</defs>
						<clipPath id="SVGID_2_">
							<use xlink:href="#SVGID_1_"  style="overflow:visible;"/>
						</clipPath>
						<g class="st0">
							<g>
								<rect x="-84.6" y="-21.9" class="st1" width="37.1" height="37.1"/>
								<rect x="-45.2" y="-21.9" class="st2" width="37.1" height="37.1"/>
								<rect x="-5.8" y="-21.9" class="st3" width="37.1" height="37.1"/>
								<rect x="33.6" y="-21.9" class="st4" width="37.1" height="37.1"/>
								<rect x="73" y="-21.9" class="st5" width="37.1" height="37.1"/>
								<rect x="112.4" y="-21.9" class="st6" width="37.1" height="37.1"/>
								<rect x="151.8" y="-21.9" class="st7" width="37.1" height="37.1"/>
								<rect x="191.2" y="-21.9" class="st8" width="37.1" height="37.1"/>
								<rect x="230.5" y="-21.9" class="st9" width="37.1" height="37.1"/>
								<rect x="269.9" y="-21.9" class="st10" width="37.1" height="37.1"/>
								<rect x="309.4" y="-21.9" class="st11" width="37.1" height="37.1"/>
								<rect x="348.8" y="-21.9" class="st12" width="37.1" height="37.1"/>
								<rect x="388" y="-21.9" class="st13" width="37.1" height="37.1"/>
								<rect x="427.5" y="-21.9" class="st14" width="37.1" height="37.1"/>
								<rect x="466.9" y="-21.9" class="st15" width="37.1" height="37.1"/>
								<rect x="506.2" y="-21.9" class="st16" width="37.1" height="37.1"/>
								<rect x="545.6" y="-21.9" class="st17" width="37.1" height="37.1"/>
								<rect x="585" y="-21.9" class="st18" width="37.1" height="37.1"/>
							</g>
							<g>
								<rect x="-84.6" y="17.5" class="st1" width="37.1" height="37.1"/>
								<rect x="-45.2" y="17.5" class="st2" width="37.1" height="37.1"/>
								<rect x="-5.8" y="17.5" class="st3" width="37.1" height="37.1"/>
								<rect x="33.6" y="17.5" class="st19" width="37.1" height="37.1"/>
								<rect x="73" y="17.5" class="st19" width="37.1" height="37.1"/>
								<rect x="112.4" y="17.5" class="st6" width="37.1" height="37.1"/>
								<rect x="151.8" y="17.5" class="st20" width="37.1" height="37.1"/>
								<rect x="191.2" y="17.5" class="st19" width="37.1" height="37.1"/>
								<rect x="230.5" y="17.5" class="st9" width="37.1" height="37.1"/>
								<rect x="269.9" y="17.5" class="st10" width="37.1" height="37.1"/>
								<rect x="309.4" y="17.5" class="st11" width="37.1" height="37.1"/>
								<rect x="348.8" y="17.5" class="st12" width="37.1" height="37.1"/>
								<rect x="388" y="17.5" class="st13" width="37.1" height="37.1"/>
								<rect x="427.5" y="17.5" class="st14" width="37.1" height="37.1"/>
								<rect x="466.9" y="17.5" class="st15" width="37.1" height="37.1"/>
								<rect x="506.2" y="17.5" class="st16" width="37.1" height="37.1"/>
								<rect x="545.6" y="17.5" class="st17" width="37.1" height="37.1"/>
								<rect x="585" y="17.5" class="st18" width="37.1" height="37.1"/>
							</g>
							<g>
								<rect x="-84.6" y="56.8" class="st21" width="37.1" height="37.1"/>
								<rect x="-45.2" y="56.8" class="st22" width="37.1" height="37.1"/>
								<rect x="-5.8" y="56.8" class="st22" width="37.1" height="37.1"/>
								<rect x="33.6" y="56.8" class="st22" width="37.1" height="37.1"/>
								<rect x="73" y="56.8" class="st22" width="37.1" height="37.1"/>
								<rect x="112.4" y="56.8" class="st22" width="37.1" height="37.1"/>
								<rect x="151.8" y="56.8" class="st23" width="37.1" height="37.1"/>
								<rect x="191.2" y="56.8" class="st24" width="37.1" height="37.1"/>
								<rect x="230.5" y="56.8" class="st25" width="37.1" height="37.1"/>
								<rect x="269.9" y="56.8" class="st26" width="37.1" height="37.1"/>
								<rect x="309.4" y="56.8" class="st11" width="37.1" height="37.1"/>
								<rect x="348.8" y="56.8" class="st12" width="37.1" height="37.1"/>
								<rect x="388" y="56.8" class="st13" width="37.1" height="37.1"/>
								<rect x="427.5" y="56.8" class="st27" width="37.1" height="37.1"/>
								<rect x="466.9" y="56.8" class="st28" width="37.1" height="37.1"/>
								<rect x="506.2" y="56.8" class="st29" width="37.1" height="37.1"/>
								<rect x="545.6" y="56.8" class="st30" width="37.1" height="37.1"/>
								<rect x="585" y="56.8" class="st18" width="37.1" height="37.1"/>
							</g>
							<g>
								<rect x="-84.6" y="96.2" class="st1" width="37.1" height="37.1"/>
								<rect x="-45.2" y="96.2" class="st2" width="37.1" height="37.1"/>
								<rect x="-5.8" y="96.2" class="st20" width="37.1" height="37.1"/>
								<rect x="33.6" y="96.2" class="st23" width="37.1" height="37.1"/>
								<rect x="73" y="96.2" class="st19" width="37.1" height="37.1"/>
								<rect x="112.4" y="96.2" class="st20" width="37.1" height="37.1"/>
								<rect x="151.8" y="96.2" class="st19" width="37.1" height="37.1"/>
								<rect x="191.2" y="96.2" class="st31" width="37.1" height="37.1"/>
								<rect x="230.5" y="96.2" class="st32" width="37.1" height="37.1"/>
								<rect x="269.9" y="96.2" class="st33" width="37.1" height="37.1"/>
								<rect x="309.4" y="96.2" class="st34" width="37.1" height="37.1"/>
								<rect x="348.8" y="96.2" class="st12" width="37.1" height="37.1"/>
								<rect x="388" y="96.2" class="st13" width="37.1" height="37.1"/>
								<rect x="427.5" y="96.2" class="st34" width="37.1" height="37.1"/>
								<rect x="466.9" y="96.2" class="st15" width="37.1" height="37.1"/>
								<rect x="506.2" y="96.2" class="st35" width="37.1" height="37.1"/>
								<rect x="545.6" y="96.2" class="st17" width="37.1" height="37.1"/>
								<rect x="585" y="96.2" class="st18" width="37.1" height="37.1"/>
							</g>
							<g>
								<rect x="-84.6" y="135.5" class="st1" width="37.1" height="37.1"/>
								<rect x="-45.2" y="135.5" class="st2" width="37.1" height="37.1"/>
								<rect x="-5.8" y="135.5" class="st19" width="37.1" height="37.1"/>
								<rect x="33.6" y="135.5" class="st36" width="37.1" height="37.1"/>
								<rect x="73" y="135.5" class="st37" width="37.1" height="37.1"/>
								<rect x="112.4" y="135.5" class="st19" width="37.1" height="37.1"/>
								<rect x="151.8" y="135.5" class="st25" width="37.1" height="37.1"/>
								<rect x="191.2" y="135.5" class="st38" width="37.1" height="37.1"/>
								<rect x="230.5" y="135.5" class="st9" width="37.1" height="37.1"/>
								<rect x="269.9" y="135.5" class="st10" width="37.1" height="37.1"/>
								<rect x="309.4" y="135.5" class="st11" width="37.1" height="37.1"/>
								<rect x="348.8" y="135.5" class="st39" width="37.1" height="37.1"/>
								<rect x="388" y="135.5" class="st13" width="37.1" height="37.1"/>
								<rect x="427.5" y="135.5" class="st14" width="37.1" height="37.1"/>
								<rect x="466.9" y="135.5" class="st15" width="37.1" height="37.1"/>
								<rect x="506.2" y="135.5" class="st16" width="37.1" height="37.1"/>
								<rect x="545.6" y="135.5" class="st17" width="37.1" height="37.1"/>
								<rect x="585" y="135.5" class="st18" width="37.1" height="37.1"/>
							</g>
							<g>
								<rect x="-84.6" y="174.8" class="st1" width="37.1" height="37.1"/>
								<rect x="-45.2" y="174.8" class="st2" width="37.1" height="37.1"/>
								<rect x="-5.8" y="174.8" class="st31" width="37.1" height="37.1"/>
								<rect x="33.6" y="174.8" class="st31" width="37.1" height="37.1"/>
								<rect x="73" y="174.8" class="st23" width="37.1" height="37.1"/>
								<rect x="112.4" y="174.8" class="st31" width="37.1" height="37.1"/>
								<rect x="151.8" y="174.8" class="st31" width="37.1" height="37.1"/>
								<rect x="191.2" y="174.8" class="st23" width="37.1" height="37.1"/>
								<rect x="230.5" y="174.8" class="st9" width="37.1" height="37.1"/>
								<rect x="269.9" y="174.8" class="st40" width="37.1" height="37.1"/>
								<rect x="309.4" y="174.8" class="st11" width="37.1" height="37.1"/>
								<rect x="348.8" y="174.8" class="st12" width="37.1" height="37.1"/>
								<rect x="388" y="174.8" class="st13" width="37.1" height="37.1"/>
								<rect x="427.5" y="174.8" class="st14" width="37.1" height="37.1"/>
								<rect x="466.9" y="174.8" class="st15" width="37.1" height="37.1"/>
								<rect x="506.2" y="174.8" class="st16" width="37.1" height="37.1"/>
								<rect x="545.6" y="174.8" class="st17" width="37.1" height="37.1"/>
								<rect x="585" y="174.8" class="st18" width="37.1" height="37.1"/>
							</g>
						</g>
					</g>
				</g>
			</g>
		</g>
	</g>
</g>
<g>
	<path class="st41" d="M282.9,232.8c0,27.9-11.2,43.1-37.1,43.1c-25.1,0-33-13.4-34.3-25.9h11.3c2.2,11.1,11.2,16.1,23.3,16.1
		c20.9,0,25.9-14,25.9-34.5v-8.1c-4.7,10.5-12.3,15.8-27.3,15.8c-21.1,0-34.4-17.8-34.4-45.4c0-29.1,15.8-46.1,36.7-46.1
		c14.2,0,22.3,6,24.7,13.8c0-4.3,0.4-9.7,0.6-11.9h11.2c-0.1,4.1-0.4,13.4-0.4,25.4L282.9,232.8L282.9,232.8z M221.9,194
		c0,22.5,9.6,35.3,25,35.3c18.5,0,25.1-11.8,25.1-35.7c0-24.5-6-35.4-24.3-35.4C231.2,158.1,221.9,172.2,221.9,194z"/>
	<path class="st41" d="M303.3,179.9c0-14.1-0.1-26.6-0.4-30.3h11.2c0.2,4.3,0.2,10,0.2,19c4.7-12.4,15.3-20.5,29.8-20.7v11.9
		c-20.9,1.1-29.6,15-29.6,33.7v45.1h-11.3L303.3,179.9L303.3,179.9z"/>
	<path class="st41" d="M422.7,192.6c0,25.7-11.1,47.6-39.1,47.6c-26.7,0-37.7-22.5-37.7-47.3c0-23.8,13-45.2,38.9-45.2
		C408.7,147.8,422.7,166.4,422.7,192.6z M357.6,193c0,21.1,9.1,37.3,26.8,37.3c18.8,0,26.3-15.8,26.3-37.7c0-20-8.9-35-26.7-35
		C366.5,157.7,357.6,172.5,357.6,193z"/>
	<path class="st41" d="M503.7,213.9c0,10.5,0.1,20.6,0.4,24.8h-10.9c-0.5-2.4-0.7-8.4-0.7-15.5c-3.5,9.9-13,17.1-27.1,17.1
		c-12.5,0-27.4-5.1-27.4-30.4v-60.3h11.3v57.8c0,12.3,3.9,22.9,18.9,22.9c14.1,0,23.9-9.5,23.9-30.7v-49.9h11.7L503.7,213.9
		L503.7,213.9z"/>
	<path class="st41" d="M535.5,226.9v47.6h-11.3v-98.4c0-12.3,0-21.1-0.4-26.5H535c0.2,3.1,0.4,10.1,0.4,15.4
		c4.9-10.1,14.2-17.2,28.9-17.2c20,0,33.4,15.8,33.4,44.8c0,30.3-15.9,47.6-36.8,47.6C547.3,240.2,539.6,234.5,535.5,226.9z
		 M585.9,193c0-22.3-9.1-35.1-24.9-35.1c-20.1,0-26.1,14.4-26.1,36.6c0,20.6,3.6,35.6,24.9,35.6C576.1,230.2,585.9,216.6,585.9,193z
		"/>
</g>
</svg>
